<svg xmlns="http://www.w3.org/2000/svg" viewBox="0 0 258.76 537.3"><defs><style>.cls-1{fill:#ed1e79;}.cls-2{fill:red;}.cls-3{fill:#ff0;}</style></defs><g id="Layer_2" data-name="Layer 2"><g id="Vietnam"><path id="north" class="cls-1" d="M178.06,409.28l-4.23,3.52-5.86.9-2.27,2.62-2.44.36-4.64.13-3,.62.14,1.31-.25,6.21.06,1.45-.47.39L153,427l-3.55-1-4.81-1.53-3.42-.24-1.75,2.7L138.41,428l-1.29.16-1.36.48-.46,1.2-.11,1.51.66,2.58.25,4.1-.18,2.79,1.26,1.77,7.33,5.94,2.17,1.48.25.89-1.29,3.22,1.14,4.53-2.29-.08-3.84-1.95-1.83-1.19-2.22,1-.77-.19L134.32,454l-2-2.28-2-.14-4.28.89-4.36.63H120l-.68.41-2.53,3.39-1.08-.58-4.4-1.29-4-.49-.83.87.49,2.77.88,2.69-.52,1.15-2.2,1.42L102.24,466l-1.78,2-1.24.49-4.44-.09-4.42.26-1.77,1.88L86.93,472l-1.44.39,3.17,2.54,2.75,2.61.66,2.1,1.79,1.35,3-1,1.91-.13,2.52,3.13,3.26.51,2.19,1.18,2,2.55.37,1.79-.09,1.58-3.72,1.15-3,1.86-2,7.47-1.08,14.94.14,13.62,2.74,2-4.44,5.29,4.28.51,7.85-1.63,2.71-2.91,4.62-3.19,2.79-5.72,3.52-4.64,23.54-10.78.85-1.81.48-1.94-1.68-3.26L145,498.6,135,487l3.34,1.39,9.82,10.18,6.14,4.24,3.74-.12,1.94-1.56,1.17-1.34-.28-2.65-2-3.75-11.42-11.42-1.67-2.83,11,10,3.82,2.55L162,492l2.16-1.46,0-1.7,0-1.52,1.94-2.45,2.51-2v-1.23l-2-1.5-4.47-1.37-4.88-2.37,1-.21,5.36.54,4-.24.66-1.54.05-1.33-1.28-2.43-1.51-.63-2,.21-1.31-.31,4.29-2.52,3,3.65,3.15,1.8,1.6-.63.66-1.44.62-6.33.81-1.5.49,1.05.53,2.66,1.84,2.07,3.75.95,1.45,1.85.93.76,4.34-2.15,3-1,3.32-2.48,9.9-5.15,5.52-.73,3.3-6.31,2.86-.82,3.37-.5,5.18-3.8,4.68-4.12,5.26-1.54,4.25-4.15,5.85-.75,1.12-4.72.75-4.45,3.28-.3,1.43-2.28.9-2.15-.21-1.74-1.24-2.28.34-2.68,1.15-2.16,0-1,.55-.41.2,1.85.95,1.8.42-1.64-.1-1.38Z"/><path id="central" class="cls-2" d="M106.45,177.65l0-1.26-1.1-1-4.31-1.83-9.76-2.79-3.64-2.12-3.36-2.72-2.54-1.84-11.9-7.86-3.6-1.31-3.11-1.4-.94-1.35.17-1.3,1.25-1,3.37-2,1.25-2.31-.4-3-1.34-3.06.65-1.07,1.09-.12,2.27-.09,4.68-.17,10.1,2.79,1.47-.31,5.48-5.06,2.06-3,.47-2.53,1.09-1.61,2.89-2.64,0-2.42L97.4,120,96,118.7l-1.24-.54-4,.44-.77-.73-.53-2.4L89.21,114l-1.33-1.72-4.33-1.47-3.66-.41-.87-.62,1.42-1.66,2.49-1.64,1.91-1,1.5-1.7.28-1.74-1.86-1.55-2.43-1.71-4-3.28-5.44-3.48-3.31-1.19L67.89,91l-6,3L58.66,96,56,99.45l-2.8.74-2.84-1.53-3.21-1.57-8.92-2.28-3.75-1.92L26.68,81.21l-1.15-2.38.74-2.7.54-3.86.78-2.5L29,67.38l.37-2.13L29,63.17,27.87,62l-1.46-.35-1.09-.47-1-2.75-.62.36-1,3.33-1.14,1.2L20,63.9l-1.17-.53L18.11,62l-.34-2.27-.76-3-1-2-3.35-2-1.58-2.62-5-5.72L2,40.38,0,36.77l1.71-1.34,2.15-2,2.31-3,2.59-3.82,1.08-2.34.76-.94,1.51-.69,1.64.38,2.87,1.54,4.32,2,3.84,2.33,1.56,2.34,2.15,2.25,1.65.68L31,34l2.48-1.69,2.14-1.7,0-1.92,2-1.74,2.57-2.85,1.21-1.93.92-.21,1,.58,4,6,.78.35L49.31,28l1.6-4.67,1.75-1.81.6.46,9.79,8.8.94-.07L65,30.27l.69-1.35.77-3.05L68,22.6l3.15-1.82,2.45-.35L74.46,22l2.11,2.15,2.6.3,5.47-3.8L86.42,20l1.91.07,2-.15,1.87-1.46,2-1.92.67-3.8.42-3.41L96.55,8l1.61-.92,3-1.29L108,2.45,109.75.88,111,0l2.65,1.43,3.16,2.77,1.92,2.07,1.28,2.25.61,1.88,5,1.63,3.21,2.31,2.14,1.77,2.1-.08,2.11-.48,1.36-1.42,2.38,0,2.82.21,1.26.57,2.31,3.26,1,.46,2.08-.23,4-1.16,3.21-.55,2.9,1.3,5.51,3.63-1.55,2.58L161.34,27l-2.41,2-1.79.48L156,32.13l-.49,4,.61,2,1.39.65,1.53,1.36.62,1.79.21,4-.08,4.47.2,1.49,1.21-.28,1.12-.53,2.28.69L167.45,53l1.78,1.17,1.62-.14,1.25,1.15.47,2.21,1.48,1.54,4.12,2.91,3.3.25,2.79,3.84,2.9-1.26,1.34,1.65,6-.58,4.17-1.56,1.51.38,3.75,3.19,2.27,2-1.65.34-4.12.07-3.59,3.44L194.33,75l-3.87,1.2-4.13,1.94-1.19,3.41L185,84l-.67,2.75-6.69,4-1.87-.41-1.29-1.49-2,.3-1.33.75-1.59-.1-1.77.9-2.32-.28-2.13-1.26-1.23-.33-1.48,0-.28,1.5,2.19,5.79.56,2.67L156,106.58l.77,5-1.93,3.86-4.32,3.1-8.11,8-3.65.17L136,128.54l-6,13.1-.07,4.48-.94,3.27.2,3.15-2.64,6.18-2.72,2.62-.61,3.37,3.89,6.93Z"/><path id="south" class="cls-3" d="M128.22,170.1l-21.12,4.79L106,176.51l-.93,2.84,0,1.71,1,1.65,1.72,2.46,3.88,3.82,2.12,1.68,2.35.39,2,.92,2.13,2.83,2.47,3.46.32,2.41,1,3.09,2.27,3.56,3.1,3.43,4.35,4.26,2.5,3,1.15,1.17,9.29,7.29,2.25,2.68,3.27,5.18,1.39.76,1.3,1,.83,2.84.28,2,.44,6.23,1.67,1.85,1.55,2.28.67,1.65,1.4,1.23,1.53.24,1.83-1.38,1.44-1.32.66.39,1.47,4.36,1.34,1.58,2.51,1.51,2.39,1.17,5.21,5.24,2.79,1.91,1.89.6,1.64.89.48,1.65-.64,1.68-1.1,1.1-6.06,3-.81,1.32.83,2,1.52,2.52,1.65,2.16,2.09,2.12,4.27,3.45,3.69,2.7,2,3,1.11,2-.68,2.38-1.56,2.59-1.21,2.23L190,306.59l-.56,1.51.86,2.32.7,1.6-.38,2,.2,4.07.56,2-1.49,3.78-1.58,3.42-3,3-.14,2.2-1,6.55.39,2.09.69,1.78,1,1,2.57,6.4,2.34,5.83,2.31,4.78.4,3-2.11,7.65-.07,18.68.42,6L191.5,400l-1.12,2.41-2.13,2.47-1.86,1.26-2.23-2.1-1.78-.09-2.38.63-1.88,1-3.82,3.63,77.8,6.56-1.74-15.15,3.45.87-3-9.15,5.74-.89,2.24,2.55-.88-4.29.14-8.51-1.67-2.51-2.37-7-1.33-2.16.57-6.18-1.27-5-.17-9.53,1.44,3.24.54-3.3-2.07-7.11-.73-1.57-.59-2.08-.56-4.2-1.9-4.11-1.78-6.1-.07-5.93-2.21-3.14-2.91-7.2-1.47-6.5-2.71-7.18L234,291.87l-2.42-2.07-3.4-3.68-4.6-6.48-1.84-4-3.85-4.25-.43-1.46-.23-2.21-.94-.4-1.12.35L213.78,265l-2.89-2.88-2.06-3.23-1.37-.22-1.92.28-1.91.72-1.7-.47-1.09-2.94-2.78-3.1-4.61-2.93-1.86-1.49.3-1.24L185,242l-6.16-3.82-2.13-5.78-6.84-6.08L163.19,221l-7.72-10.87-5.16-3.1-.52-.66,4.34,1.67-.68-5.68,1.39-2.68-3.07-3.93-6.08-6.18-3.35-1.43-2.78-2.1-6.26-6.88-1.73-2.65-1.09-2.65-2.26-3.72-.43-1.22"/></g></g></svg>
